<?xml version="1.0" standalone="no"?>
<!DOCTYPE svg PUBLIC "-//W3C//DTD SVG 20010904//EN"
 "http://www.w3.org/TR/2001/REC-SVG-20010904/DTD/svg10.dtd">
<svg version="1.0" xmlns="http://www.w3.org/2000/svg"
 width="700.000000pt" height="700.000000pt" viewBox="0 0 700.000000 700.000000"
 preserveAspectRatio="xMidYMid meet">
<metadata>
Created by potrace 1.14, written by Peter Selinger 2001-2017
</metadata>
<g transform="translate(0.000000,700.000000) scale(0.100000,-0.100000)"
fill="#000000" stroke="none">
<path d="M1550 6985 c-236 -36 -388 -83 -575 -177 -417 -210 -736 -580 -883
-1023 -22 -66 -42 -134 -45 -150 -3 -17 -8 -41 -11 -55 -33 -126 -34 -200 -34
-2075 0 -1988 -1 -1947 49 -2151 160 -651 682 -1164 1334 -1311 177 -39 104
-38 2100 -38 1045 0 1926 3 1957 7 655 84 1221 533 1448 1148 37 100 87 305
97 395 10 88 11 3810 1 3885 -45 343 -175 642 -404 928 -24 30 -185 190 -221
220 -44 36 -182 134 -238 167 -131 79 -356 170 -474 192 -13 2 -28 6 -31 8 -4
2 -35 9 -71 14 -35 6 -75 14 -89 18 -14 4 -880 8 -1925 9 -1508 2 -1918 -1
-1985 -11z"/>
</g>
</svg>
